<?xml version="1.0" encoding="utf-8"?>
<!-- Generator: Adobe Illustrator 22.0.1, SVG Export Plug-In . SVG Version: 6.00 Build 0)  -->
<svg version="1.1" id="Layer_1" xmlns="http://www.w3.org/2000/svg" xmlns:xlink="http://www.w3.org/1999/xlink" x="0px" y="0px"
	 width="1214px" height="477.1px" viewBox="0 0 1214 477.1" style="enable-background:new 0 0 1214 477.1;" xml:space="preserve">
<style type="text/css">
	.st0{fill:#00B2A5;}
	.st1{fill:#3B3F3E;}
</style>
<rect x="53.3" y="70.9" class="st0" width="63" height="63"/>
<g>
	<path class="st1" d="M407.6,171.7c-5.7-12.9-14.5-23.2-26.4-30.7c-11.9-7.5-26.2-11.3-42.7-11.3c-17.9,0-33.9,4.5-48,13.4
		c-14.1,8.9-25.3,21.8-33.4,38.5c-8.2,16.7-12.2,36.5-12.2,59.2c0,22.5,4.1,42.2,12.2,59c8.2,16.8,19.3,29.7,33.4,38.7
		c14.1,8.9,30.1,13.4,48,13.4c16.6,0,30.8-3.8,42.7-11.3c11.9-7.5,20.7-17.7,26.4-30.7v39.2h66V135.8h-66V171.7z M394.2,279.4
		c-8.9,9.6-20.4,14.4-34.4,14.4c-14.2,0-25.7-4.7-34.4-14c-8.7-9.3-13-22.3-13-38.8c0-16.6,4.3-29.5,13-38.8
		c8.7-9.3,20.1-14,34.4-14c14,0,25.4,4.7,34.4,14.2c8.9,9.5,13.4,22.3,13.4,38.7C407.6,257,403.1,269.8,394.2,279.4"/>
	<path class="st1" d="M520.2,376.1c0,7-1.6,12-4.7,15c-3.1,3-8.2,4.5-15.2,4.5h-16.3v57.1h25.3c51.8,0,77.7-25.8,77.7-77.3V135.8
		h-66.8V376.1z"/>
	<path class="st1" d="M666.5,338.6c14.1,8.9,30.1,13.4,48,13.4c16.6,0,30.8-3.8,42.7-11.3c11.9-7.5,20.7-17.7,26.4-30.7v39.2h66
		V135.8h-66v35.9c-5.7-12.9-14.5-23.2-26.4-30.7c-11.9-7.5-26.2-11.3-42.7-11.3c-17.9,0-33.9,4.5-48,13.4
		c-14.1,8.9-25.3,21.8-33.4,38.5c-8.2,16.7-12.2,36.5-12.2,59.2c0,22.5,4.1,42.2,12.2,59C641.3,316.8,652.4,329.7,666.5,338.6
		 M701.5,202.1c8.7-9.3,20.1-14,34.4-14c14,0,25.4,4.7,34.4,14.2c8.9,9.5,13.4,22.3,13.4,38.7c0,16.1-4.5,28.9-13.4,38.5
		c-8.9,9.6-20.4,14.4-34.4,14.4c-14.2,0-25.7-4.7-34.4-14c-8.7-9.3-13-22.3-13-38.8C688.5,224.3,692.8,211.4,701.5,202.1"/>
	<rect x="895.5" y="2.2" class="st1" width="66.4" height="347.1"/>
	<path class="st1" d="M141.8,135.8l0,66.2v50.7c0,12.5-2.5,22.5-8.2,29.6c-5.7,7.1-14.8,10.7-26.9,10.7c-13.4,0-23.6-4.5-30.4-13.2
		c-6.9-8.8-10.3-21.7-10.3-38.2v-0.6H0v0.6c0,35.6,9.9,63.5,29.5,82.7c19.6,19.2,46.4,29,79.9,29c31,0,55.6-8.9,73.2-26.5
		c17.6-17.6,26-42.5,26-74.1V202l0-66.2H141.8z"/>
	<rect x="141.8" class="st1" width="66.8" height="66.8"/>
	<rect x="520.2" class="st1" width="66.8" height="66.8"/>
	<polygon class="st0" points="670.2,461.4 637.1,383.1 622.5,383.1 622.5,476.3 634.7,476.3 634.7,402.2 664.6,476.3 675.4,476.3 
		705.2,401.9 705.2,476.3 717.4,476.3 717.4,383.1 702.8,383.1 	"/>
	<polygon class="st0" points="745.1,476.3 797.4,476.3 797.4,466.3 757.4,466.3 757.4,433.2 793.4,433.2 793.4,423.8 757.4,423.8 
		757.4,391.4 797.4,391.4 797.4,381.5 745.1,381.5 	"/>
	<path class="st0" d="M878.3,387.2c-7.5-3.8-16.5-5.7-27-5.7h-30.1v94.8h30.1c10.5,0,19.5-1.9,27-5.9c7.5-3.9,13.2-9.4,17-16.5
		c3.9-7.1,5.8-15.5,5.8-25.1c0-9.7-1.9-18.1-5.8-25.2C891.5,396.5,885.8,391,878.3,387.2 M878.8,455.7c-6.5,6.4-16,9.5-28.4,9.5
		h-16.9v-73h16.9c12.5,0,21.9,3.2,28.4,9.6c6.5,6.4,9.8,15.4,9.8,27S885.4,449.3,878.8,455.7"/>
	<rect x="923.1" y="381.5" class="st0" width="12.2" height="94.8"/>
	<path class="st0" d="M988.2,396.3c4.9-3,10.4-4.5,16.6-4.5c7.8,0,14.4,1.9,19.8,5.6c5.4,3.7,9.3,8.7,11.7,15h12.9
		c-2.9-9.9-8.1-17.6-15.6-23.3c-7.5-5.7-17.1-8.5-28.7-8.5c-8.9,0-16.7,2-23.5,6.1c-6.8,4.1-12.1,9.8-15.9,17.1
		c-3.8,7.4-5.7,15.7-5.7,25.2c0,9.3,1.9,17.6,5.7,25c3.8,7.3,9.1,13,15.9,17.1c6.8,4.1,14.7,6.1,23.5,6.1c11.6,0,21.1-2.8,28.7-8.5
		c7.5-5.7,12.7-13.5,15.6-23.3h-12.9c-2.4,6.3-6.3,11.3-11.7,15c-5.4,3.7-12,5.6-19.8,5.6c-6.2,0-11.7-1.5-16.6-4.5
		c-4.9-3-8.7-7.3-11.6-12.8c-2.8-5.6-4.2-12.1-4.2-19.5c0-7.5,1.4-14.1,4.2-19.7C979.5,403.6,983.3,399.3,988.2,396.3"/>
	<path class="st0" d="M1098.9,383.2l-35.1,93.1h13.2l7.9-21.9h41.7l7.9,21.9h13.2l-35-93.1H1098.9z M1088.4,444.8l17.4-47.9
		l17.4,47.9H1088.4z"/>
	<polygon class="st0" points="1180.4,466.7 1180.4,381.5 1168.1,381.5 1168.1,476.3 1214,476.3 1214,466.7 	"/>
</g>
</svg>
